<svg width="265" height="358" viewBox="0 0 265 358" fill="none" xmlns="http://www.w3.org/2000/svg">
<path d="M100.014 201.317C77.9116 166.804 65.0986 125.774 65.0986 81.7522C65.0986 71.6351 65.7756 61.6761 67.0856 51.9178C86.1176 38.8598 109.111 31.1533 133.894 30.9688V201.317H100.014Z" fill="#BCDF47"/>
<path d="M176.77 201.317C199.397 166.804 212.516 125.774 212.516 81.7522C212.516 71.6351 211.823 61.6761 210.481 51.9178C190.996 38.8598 167.456 31.1533 142.083 30.9688V201.317H176.77Z" fill="#18D0FE"/>
<path d="M204.327 251.992H73.2891V266.734H204.327V251.992Z" fill="#EF9921"/>
<path d="M86.3916 229.689H191.223V242.792H86.3916V229.689Z" fill="#EF9921"/>
<path d="M176.36 208.455H99.5371V221.7H176.36V208.455Z" fill="#EF9921"/>
</svg>
