<svg width="1122" height="328" viewBox="0 0 1122 328" fill="none" xmlns="http://www.w3.org/2000/svg">
<path d="M473.014 171.317C450.912 136.804 438.099 95.7742 438.099 51.7522C438.099 41.6351 438.776 31.6761 440.086 21.9178C459.118 8.85981 482.111 1.15328 506.894 0.96875V171.317H473.014Z" fill="#BCDF47"/>
<path d="M549.77 171.317C572.397 136.804 585.516 95.7742 585.516 51.7522C585.516 41.6351 584.823 31.6761 583.481 21.9178C563.996 8.85981 540.456 1.15328 515.083 0.96875V171.317H549.77Z" fill="#18D0FE"/>
<path d="M577.327 221.992H446.289V236.734H577.327V221.992Z" fill="#EF9921"/>
<path d="M459.392 199.689H564.223V212.792H459.392V199.689Z" fill="#EF9921"/>
<path d="M549.36 178.455H472.537V191.7H549.36V178.455Z" fill="#EF9921"/>
<path d="M72.7373 326.99V288.309H90.033C92.8327 288.309 95.2456 288.788 97.2717 289.746C99.3347 290.667 100.938 292.011 102.08 293.78C103.222 295.548 103.793 297.684 103.793 300.189C103.793 302.289 103.406 304.131 102.632 305.715C101.859 307.262 100.772 308.552 99.3715 309.583C97.9717 310.578 96.2955 311.333 94.3431 311.849C92.4275 312.365 90.3093 312.622 87.9884 312.622H79.976V326.99H72.7373ZM97.7138 326.99L88.32 311.462L95.1719 310.025L105.782 326.99H97.7138ZM79.976 306.268H89.4251C91.6723 306.268 93.4037 305.752 94.6194 304.721C95.8719 303.689 96.4981 302.197 96.4981 300.245C96.4981 298.329 95.8719 296.929 94.6194 296.045C93.4037 295.124 91.6354 294.664 89.3146 294.664H79.976V306.268Z" fill="#747474"/>
<path d="M125.85 326.99V288.309H154.86V294.664H133.089V304.002H152.65V310.357H133.089V320.635H155.247V326.99H125.85Z" fill="#747474"/>
<path d="M172.392 326.99L187.422 288.309H195.821L210.962 326.99H203.005L191.677 296.045H191.511L179.907 326.99H172.392ZM181.731 319.309V312.954H201.402V319.309H181.731Z" fill="#747474"/>
<path d="M230.456 326.99V288.309H244.878C248.967 288.309 252.54 289.064 255.598 290.575C258.655 292.048 261.032 294.222 262.726 297.095C264.421 299.968 265.268 303.505 265.268 307.705C265.268 311.72 264.421 315.183 262.726 318.093C261.032 320.966 258.619 323.177 255.487 324.724C252.356 326.234 248.654 326.99 244.38 326.99H230.456ZM237.694 320.635H244.657C247.53 320.635 249.943 320.138 251.896 319.143C253.848 318.111 255.322 316.638 256.316 314.722C257.348 312.807 257.863 310.467 257.863 307.705C257.863 304.757 257.366 302.326 256.371 300.411C255.414 298.458 253.959 297.021 252.006 296.1C250.054 295.143 247.604 294.664 244.657 294.664H237.694V320.635Z" fill="#747474"/>
<path d="M294.918 326.99V313.507L279.39 288.309H288.342L298.509 306.378H298.73L308.898 288.309H317.629L302.156 313.507V326.99H294.918Z" fill="#747474"/>
<path d="M367.775 326.99V288.309H395.846V294.664H375.014V304.61H393.636V310.965H375.014V326.99H367.775Z" fill="#747474"/>
<path d="M434.203 327.542C430.225 327.542 426.762 326.713 423.815 325.055C420.868 323.361 418.584 321.022 416.963 318.038C415.342 315.054 414.531 311.573 414.531 307.594C414.531 303.652 415.36 300.189 417.018 297.206C418.676 294.222 420.978 291.901 423.925 290.243C426.909 288.585 430.335 287.756 434.203 287.756C438.219 287.756 441.7 288.604 444.647 290.298C447.594 291.956 449.878 294.277 451.499 297.261C453.12 300.245 453.93 303.708 453.93 307.649C453.93 311.591 453.101 315.054 451.444 318.038C449.786 321.022 447.465 323.361 444.481 325.055C441.534 326.713 438.108 327.542 434.203 327.542ZM434.203 320.856C436.671 320.856 438.826 320.359 440.668 319.364C442.51 318.332 443.947 316.822 444.978 314.833C446.01 312.844 446.526 310.431 446.526 307.594C446.526 304.757 446.01 302.363 444.978 300.411C443.984 298.458 442.565 296.985 440.724 295.99C438.882 294.958 436.708 294.443 434.203 294.443C431.772 294.443 429.635 294.958 427.793 295.99C425.951 296.985 424.515 298.458 423.483 300.411C422.452 302.363 421.936 304.776 421.936 307.649C421.936 310.486 422.433 312.899 423.428 314.888C424.459 316.84 425.896 318.332 427.738 319.364C429.58 320.359 431.735 320.856 434.203 320.856Z" fill="#747474"/>
<path d="M475.673 326.99V288.309H492.969C495.768 288.309 498.181 288.788 500.207 289.746C502.27 290.667 503.873 292.011 505.015 293.78C506.157 295.548 506.728 297.684 506.728 300.189C506.728 302.289 506.341 304.131 505.567 305.715C504.794 307.262 503.707 308.552 502.307 309.583C500.907 310.578 499.231 311.333 497.279 311.849C495.363 312.365 493.245 312.622 490.924 312.622H482.912V326.99H475.673ZM500.649 326.99L491.256 311.462L498.108 310.025L508.717 326.99H500.649ZM482.912 306.268H492.361C494.608 306.268 496.339 305.752 497.555 304.721C498.807 303.689 499.434 302.197 499.434 300.245C499.434 298.329 498.807 296.929 497.555 296.045C496.339 295.124 494.571 294.664 492.25 294.664H482.912V306.268Z" fill="#747474"/>
<path d="M569.028 326.99V294.664H555.711V288.309H589.473V294.664H576.267V326.99H569.028Z" fill="#747474"/>
<path d="M625.769 327.542C621.79 327.542 618.327 326.713 615.38 325.055C612.433 323.361 610.149 321.022 608.528 318.038C606.907 315.054 606.097 311.573 606.097 307.594C606.097 303.652 606.926 300.189 608.583 297.206C610.241 294.222 612.543 291.901 615.491 290.243C618.474 288.585 621.901 287.756 625.769 287.756C629.784 287.756 633.265 288.604 636.212 290.298C639.159 291.956 641.443 294.277 643.064 297.261C644.685 300.245 645.496 303.708 645.496 307.649C645.496 311.591 644.667 315.054 643.009 318.038C641.351 321.022 639.03 323.361 636.046 325.055C633.099 326.713 629.673 327.542 625.769 327.542ZM625.769 320.856C628.237 320.856 630.392 320.359 632.234 319.364C634.076 318.332 635.512 316.822 636.544 314.833C637.575 312.844 638.091 310.431 638.091 307.594C638.091 304.757 637.575 302.363 636.544 300.411C635.549 298.458 634.131 296.985 632.289 295.99C630.447 294.958 628.274 294.443 625.769 294.443C623.337 294.443 621.201 294.958 619.359 295.99C617.517 296.985 616.08 298.458 615.049 300.411C614.017 302.363 613.501 304.776 613.501 307.649C613.501 310.486 613.999 312.899 614.993 314.888C616.025 316.84 617.461 318.332 619.303 319.364C621.145 320.359 623.3 320.856 625.769 320.856Z" fill="#747474"/>
<path d="M667.238 326.99V288.309H674.367L688.126 309.196H688.236L702.382 288.309H709.4V326.99H702.161V300.908L690.889 317.264H685.418L674.311 300.908V326.99H667.238Z" fill="#747474"/>
<path d="M750.772 327.542C746.794 327.542 743.331 326.713 740.384 325.055C737.437 323.361 735.153 321.022 733.532 318.038C731.911 315.054 731.1 311.573 731.1 307.594C731.1 303.652 731.929 300.189 733.587 297.206C735.245 294.222 737.547 291.901 740.494 290.243C743.478 288.585 746.904 287.756 750.772 287.756C754.787 287.756 758.269 288.604 761.216 290.298C764.163 291.956 766.447 294.277 768.068 297.261C769.689 300.245 770.499 303.708 770.499 307.649C770.499 311.591 769.67 315.054 768.012 318.038C766.355 321.022 764.034 323.361 761.05 325.055C758.103 326.713 754.677 327.542 750.772 327.542ZM750.772 320.856C753.24 320.856 755.395 320.359 757.237 319.364C759.079 318.332 760.516 316.822 761.547 314.833C762.579 312.844 763.095 310.431 763.095 307.594C763.095 304.757 762.579 302.363 761.547 300.411C760.553 298.458 759.134 296.985 757.293 295.99C755.451 294.958 753.277 294.443 750.772 294.443C748.341 294.443 746.204 294.958 744.362 295.99C742.52 296.985 741.084 298.458 740.052 300.411C739.021 302.363 738.505 304.776 738.505 307.649C738.505 310.486 739.002 312.899 739.997 314.888C741.028 316.84 742.465 318.332 744.307 319.364C746.149 320.359 748.304 320.856 750.772 320.856Z" fill="#747474"/>
<path d="M792.242 326.99V288.309H809.538C812.337 288.309 814.75 288.788 816.776 289.746C818.839 290.667 820.442 292.011 821.584 293.78C822.726 295.548 823.297 297.684 823.297 300.189C823.297 302.289 822.91 304.131 822.136 305.715C821.363 307.262 820.276 308.552 818.876 309.583C817.476 310.578 815.8 311.333 813.848 311.849C811.932 312.365 809.814 312.622 807.493 312.622H799.481V326.99H792.242ZM817.218 326.99L807.824 311.462L814.676 310.025L825.286 326.99H817.218ZM799.481 306.268H808.93C811.177 306.268 812.908 305.752 814.124 304.721C815.376 303.689 816.003 302.197 816.003 300.245C816.003 298.329 815.376 296.929 814.124 296.045C812.908 295.124 811.14 294.664 808.819 294.664H799.481V306.268Z" fill="#747474"/>
<path d="M845.354 326.99V288.309H862.65C865.449 288.309 867.862 288.788 869.888 289.746C871.951 290.667 873.553 292.011 874.695 293.78C875.837 295.548 876.409 297.684 876.409 300.189C876.409 302.289 876.022 304.131 875.249 305.715C874.475 307.262 873.387 308.552 871.987 309.583C870.587 310.578 868.912 311.333 866.96 311.849C865.044 312.365 862.925 312.622 860.604 312.622H852.593V326.99H845.354ZM870.331 326.99L860.937 311.462L867.789 310.025L878.398 326.99H870.331ZM852.593 306.268H862.042C864.289 306.268 866.02 305.752 867.236 304.721C868.489 303.689 869.115 302.197 869.115 300.245C869.115 298.329 868.489 296.929 867.236 296.045C866.02 295.124 864.252 294.664 861.931 294.664H852.593V306.268Z" fill="#747474"/>
<path d="M915.829 327.542C911.85 327.542 908.387 326.713 905.44 325.055C902.493 323.361 900.209 321.022 898.588 318.038C896.967 315.054 896.157 311.573 896.157 307.594C896.157 303.652 896.986 300.189 898.644 297.206C900.301 294.222 902.604 291.901 905.551 290.243C908.535 288.585 911.961 287.756 915.829 287.756C919.844 287.756 923.326 288.604 926.273 290.298C929.22 291.956 931.504 294.277 933.125 297.261C934.745 300.245 935.556 303.708 935.556 307.649C935.556 311.591 934.727 315.054 933.069 318.038C931.412 321.022 929.091 323.361 926.107 325.055C923.16 326.713 919.734 327.542 915.829 327.542ZM915.829 320.856C918.297 320.856 920.452 320.359 922.294 319.364C924.136 318.332 925.573 316.822 926.604 314.833C927.636 312.844 928.151 310.431 928.151 307.594C928.151 304.757 927.636 302.363 926.604 300.411C925.609 298.458 924.191 296.985 922.349 295.99C920.507 294.958 918.334 294.443 915.829 294.443C913.398 294.443 911.261 294.958 909.419 295.99C907.577 296.985 906.14 298.458 905.109 300.411C904.077 302.363 903.562 304.776 903.562 307.649C903.562 310.486 904.059 312.899 905.054 314.888C906.085 316.84 907.522 318.332 909.364 319.364C911.206 320.359 913.361 320.856 915.829 320.856Z" fill="#747474"/>
<path d="M964.546 327.321L951.726 288.309H959.462L968.193 317.485H968.303L976.813 288.088H984.107L992.893 317.043H993.059L1002.01 288.309H1009.25L996.706 327.321H988.914L980.57 299.029H980.46L972.171 327.321H964.546Z" fill="#747474"/>
<path d="M1034.92 314.888C1034.77 314.409 1034.66 313.949 1034.59 313.507C1034.55 313.028 1034.53 312.567 1034.53 312.125C1034.53 310.725 1034.87 309.418 1035.53 308.202C1036.23 306.949 1037.37 305.955 1038.95 305.218L1043.1 303.284C1044.02 302.842 1044.72 302.4 1045.2 301.958C1045.71 301.516 1046.06 301.018 1046.25 300.466C1046.47 299.913 1046.58 299.269 1046.58 298.532C1046.58 297.611 1046.27 296.782 1045.64 296.045C1045.05 295.308 1044.13 294.737 1042.88 294.332C1041.66 293.89 1040.12 293.669 1038.24 293.669C1037.02 293.669 1035.77 293.743 1034.48 293.89C1033.19 294.001 1031.83 294.166 1030.39 294.387L1027.52 294.829L1026.36 289.967L1028.01 289.469C1029.82 288.88 1031.66 288.456 1033.54 288.199C1035.46 287.904 1037.26 287.756 1038.95 287.756C1042.12 287.756 1044.83 288.199 1047.08 289.083C1049.32 289.93 1051.04 291.127 1052.22 292.674C1053.4 294.185 1053.99 295.953 1053.99 297.979C1053.99 300.705 1053.34 302.879 1052.05 304.5C1050.8 306.084 1048.99 307.391 1046.64 308.423L1042.82 310.081C1041.98 310.449 1041.37 310.909 1041 311.462C1040.63 311.978 1040.45 312.678 1040.45 313.562V314.888H1034.92ZM1037.57 327.432C1036.28 327.432 1035.22 327.008 1034.37 326.161C1033.52 325.313 1033.1 324.208 1033.1 322.845C1033.1 321.556 1033.52 320.488 1034.37 319.64C1035.22 318.793 1036.28 318.369 1037.57 318.369C1038.86 318.369 1039.93 318.793 1040.78 319.64C1041.66 320.488 1042.1 321.556 1042.1 322.845C1042.1 324.208 1041.66 325.313 1040.78 326.161C1039.93 327.008 1038.86 327.432 1037.57 327.432Z" fill="#747474"/>
</svg>
