<svg width="148" height="237" viewBox="0 0 148 237" fill="none" xmlns="http://www.w3.org/2000/svg">
<path d="M35.0136 171.317C12.9116 136.804 0.0986328 95.7742 0.0986328 51.7522C0.0986328 41.6351 0.775632 31.6761 2.08563 21.9178C21.1176 8.85981 44.1106 1.15328 68.8936 0.96875V171.317H35.0136Z" fill="#BCDF47"/>
<path d="M111.77 171.317C134.397 136.804 147.516 95.7742 147.516 51.7522C147.516 41.6351 146.823 31.6761 145.481 21.9178C125.996 8.85981 102.456 1.15328 77.083 0.96875V171.317H111.77Z" fill="#18D0FE"/>
<path d="M139.327 221.992H8.28906V236.734H139.327V221.992Z" fill="#EF9921"/>
<path d="M21.3916 199.689H126.223V212.792H21.3916V199.689Z" fill="#EF9921"/>
<path d="M111.36 178.455H34.5371V191.7H111.36V178.455Z" fill="#EF9921"/>
</svg>
